<svg xmlns="http://www.w3.org/2000/svg" width="324" height="52" viewBox="0 0 324 52" font-family="&#39;Golos Text&#39;, Arial, Helvetica, sans-serif">
  
  <g transform="translate(0,7)">
    <g>
      <rect x="0" y="0" width="9" height="9" fill="#EF533F"></rect>
      <rect x="10" y="0" width="9" height="9" fill="#2A2826"></rect>
      <rect x="20" y="0" width="9" height="9" fill="#EF533F"></rect>
      <rect x="30" y="0" width="9" height="9" fill="#2A2826"></rect>
      <rect x="0" y="10" width="9" height="9" fill="#2A2826"></rect>
      <rect x="10" y="10" width="9" height="9" fill="#EF533F"></rect>
      <rect x="20" y="10" width="9" height="9" fill="#2A2826"></rect>
      <rect x="30" y="10" width="9" height="9" fill="#EF533F"></rect>
      <rect x="0" y="20" width="9" height="9" fill="#EF533F"></rect>
      <rect x="10" y="20" width="9" height="9" fill="#2A2826"></rect>
      <rect x="20" y="20" width="9" height="9" fill="#EF533F"></rect>
      <rect x="30" y="20" width="9" height="9" fill="#2A2826"></rect>
      <rect x="0" y="30" width="9" height="9" fill="#2A2826"></rect>
      <rect x="10" y="30" width="9" height="9" fill="#EF533F"></rect>
      <rect x="20" y="30" width="9" height="9" fill="#2A2826"></rect>
      <rect x="30" y="30" width="9" height="9" fill="#EF533F"></rect>
    </g>
  </g>
  
  <text x="50" y="24" font-size="19" font-weight="700">
    <tspan fill="#2A2826">Высшая Школа </tspan><tspan fill="#EF533F">Экономики</tspan>
  </text>
  <text x="50" y="42" font-size="10.5" font-weight="500" fill="#857F79" letter-spacing="0.2">Институт Профессиональных Бухгалтеров и Аудиторов</text>
</svg>